<svg width="51" height="51" viewBox="0 0 51 51" fill="none" xmlns="http://www.w3.org/2000/svg">
<path d="M39.5156 30.433C39.7325 29.8115 40.4118 29.4834 41.0334 29.6989C41.655 29.9162 41.983 30.5954 41.7658 31.217C40.8991 33.6825 39.4874 35.8906 37.6789 37.6972C35.8722 39.5023 33.6626 40.9075 31.1969 41.7713C30.4863 42.0195 29.921 42.4972 29.5647 43.097C29.2075 43.6983 29.0575 44.4242 29.1775 45.1658L29.1872 45.2267C29.2652 45.683 29.4276 46.0887 29.6634 46.437C29.9071 46.7932 30.2366 47.0992 30.6441 47.341C31.0576 47.5864 31.4826 47.7314 31.909 47.7752C32.34 47.819 32.7867 47.7613 33.2377 47.6035C37.2746 46.1902 40.8068 43.7043 43.4898 40.4876C46.1401 37.31 47.9639 33.42 48.6321 29.1479C48.7322 28.4982 49.3413 28.0533 49.9911 28.153C50.6404 28.2531 51.0871 28.8622 50.9856 29.5116C50.2486 34.2211 48.2389 38.5093 45.32 42.0085C42.3624 45.5562 38.4694 48.2967 34.0217 49.8536C33.2394 50.1286 32.4508 50.2237 31.6746 50.1471C30.8938 50.0691 30.1379 49.8176 29.429 49.3963C28.7138 48.9713 28.1313 48.4281 27.6911 47.7831C27.26 47.149 26.9694 46.4231 26.8337 45.6221C26.8305 45.6032 26.8226 45.5736 26.8226 45.5547C26.6089 44.2368 26.8743 42.9503 27.5083 41.8835C28.1438 40.8138 29.1494 39.9629 30.4115 39.5209C32.5334 38.7779 34.4356 37.5643 35.9972 36.0078C37.5557 34.4508 38.7689 32.552 39.5141 30.433H39.5156ZM21.8506 48.6326C22.5 48.7323 22.9452 49.3414 22.8451 49.9911C22.7436 50.6422 22.1363 51.0871 21.4865 50.9856C16.7767 50.2486 12.49 48.239 8.98882 45.3204C5.44094 42.3615 2.70023 38.4701 1.14358 34.0231C0.870011 33.2405 0.773477 32.4519 0.849707 31.6758C0.928073 30.8954 1.1792 30.1409 1.60096 29.4303C2.02557 28.7169 2.56915 28.1327 3.21567 27.6925C3.86077 27.2537 4.60241 26.9602 5.42241 26.8273L5.44414 26.8245C6.76213 26.609 8.04735 26.8757 9.11563 27.5098C10.1853 28.1452 11.0363 29.1511 11.4784 30.4127C12.2214 32.5349 13.4351 34.4384 14.9917 35.9981C16.5487 37.5565 18.4477 38.77 20.5682 39.5162C21.1898 39.7335 21.5179 40.4128 21.301 41.0343C21.0837 41.6555 20.4044 41.9836 19.7828 41.7681C17.3171 40.9015 15.1089 39.4899 13.3022 37.6801C11.4969 35.8735 10.0917 33.6637 9.22784 31.1995C8.97956 30.4893 8.50187 29.924 7.90201 29.5664C7.2993 29.2088 6.57156 29.0588 5.82814 29.1792L5.80641 29.1821C5.33621 29.2587 4.91802 29.4225 4.5618 29.6647C4.20559 29.9083 3.8996 30.2378 3.65773 30.6453C3.4123 31.0592 3.26732 31.4856 3.22351 31.9101C3.1797 32.3411 3.2374 32.7878 3.3952 33.2391C4.80866 37.2754 7.29467 40.8078 10.5116 43.4903C13.6894 46.1403 17.5796 47.964 21.8506 48.6326ZM2.36789 21.851C2.26779 22.5003 1.65867 22.9455 1.00893 22.8454C0.359557 22.7439 -0.0871336 22.1366 0.0143872 21.4869C0.751392 16.7774 2.76115 12.4896 5.67995 8.98856C8.63759 5.4409 12.5306 2.70037 16.9783 1.14346C17.7606 0.868839 18.5492 0.771955 19.3254 0.849961C20.1062 0.927967 20.8603 1.17944 21.571 1.60117C22.2862 2.02575 22.8687 2.56929 23.3089 3.214C23.7496 3.85906 24.0413 4.60065 24.1742 5.4206L24.1774 5.4409C24.3911 6.75881 24.1257 8.04537 23.4917 9.1118C22.8562 10.1814 21.8506 11.0327 20.5885 11.4744C18.4666 12.2178 16.563 13.4295 15.0028 14.9879C13.4443 16.5448 12.2311 18.4451 11.4844 20.564C11.2675 21.1856 10.5882 21.5136 9.96662 21.2982C9.34503 21.0809 9.01696 20.4016 9.23247 19.7804C10.0991 17.3145 11.5112 15.1051 13.3211 13.2985C15.1278 11.4933 17.3374 10.0863 19.8017 9.22436C20.5123 8.97609 21.0776 8.49844 21.4335 7.89862C21.7929 7.29594 21.9425 6.56825 21.8207 5.82488L21.8178 5.80457C21.7412 5.33476 21.5788 4.91623 21.3352 4.56004C21.0915 4.20243 20.762 3.89788 20.3545 3.65603C19.9406 3.41097 19.5142 3.26565 19.0896 3.22183C18.6586 3.17802 18.2119 3.23608 17.7606 3.39352C13.724 4.80688 10.1914 7.29274 7.50875 10.5095C4.85853 13.6871 3.03436 17.577 2.36611 21.8492L2.36789 21.851ZM30.4332 11.484C29.8116 11.2668 29.4835 10.5875 29.699 9.96595C29.9163 9.34475 30.5956 9.0167 31.2172 9.23362C33.6829 10.1002 35.8911 11.5104 37.6992 13.3202C39.5045 15.1268 40.9116 17.3366 41.7754 19.8022C42.0237 20.5142 42.5013 21.078 43.1012 21.4356C43.7021 21.7929 44.4284 21.9429 45.1719 21.8228L45.231 21.8132C45.687 21.7352 46.093 21.5728 46.4414 21.337C46.7973 21.0933 47.1018 20.7639 47.3455 20.3564C47.5905 19.9425 47.7359 19.5179 47.7797 19.0916C47.8235 18.6606 47.7655 18.2139 47.608 17.7626C46.1946 13.7263 43.7085 10.1925 40.4916 7.50966C37.3138 4.85996 33.4236 3.03448 29.1526 2.36769C28.5029 2.26796 28.0565 1.65887 28.1577 1.00918C28.2578 0.358062 28.8669 -0.0868204 29.5167 0.0143377C34.2279 0.751652 38.5146 2.76128 42.014 5.67955C45.5623 8.63878 48.3044 12.5316 49.8596 16.979C50.1328 17.7612 50.2297 18.5498 50.1517 19.3259C50.0737 20.1067 49.8222 20.8625 49.4005 21.5714C48.9759 22.2866 48.4323 22.869 47.7875 23.3092C47.1535 23.7402 46.4289 24.0308 45.626 24.1666C45.6075 24.1698 45.5776 24.1776 45.5605 24.1776C44.2425 24.3913 42.9559 24.1259 41.8876 23.4919C40.8179 22.8565 39.9669 21.851 39.5248 20.589C38.7818 18.4672 37.5681 16.5637 36.0097 15.0021C34.4527 13.4434 32.5523 12.2303 30.4332 11.4855V11.484Z" fill="#F2A283"/>
</svg>
